<?xml version="1.0" encoding="utf-8"?>
<!-- Generator: Adobe Illustrator 26.3.1, SVG Export Plug-In . SVG Version: 6.00 Build 0)  -->
<svg version="1.1" id="Ebene_1" xmlns="http://www.w3.org/2000/svg" xmlns:xlink="http://www.w3.org/1999/xlink" x="0px" y="0px"
	 viewBox="0 0 1000 207" style="enable-background:new 0 0 1000 207;" xml:space="preserve">
<style type="text/css">
	.st0{fill:#05525A;}
</style>
<g>
	<polygon class="st0" points="1.5,42.3 64.1,42.3 64.1,203.5 108.6,203.5 108.6,42.3 171.2,42.3 171.2,3.5 1.5,3.5 	"/>
	<polygon class="st0" points="272,3.5 192.7,203.5 238.9,203.5 291.7,59.7 343.7,203.5 390.7,203.5 312.3,3.5 	"/>
	<path class="st0" d="M553.7,161.3c-7.6,3.2-16.4,4.8-26.6,4.8c-8.7,0-16.7-1.5-23.9-4.5c-7.3-3-13.5-7.3-18.7-12.7
		c-5.2-5.5-9.3-12.1-12.2-19.8c-2.9-7.7-4.4-16.3-4.4-25.8c0-9.3,1.5-17.7,4.4-25.5c2.9-7.7,7-14.3,12.2-19.8
		c5.2-5.5,11.4-9.7,18.7-12.6c7.3-2.9,15.2-4.4,23.9-4.4c9.8,0,18.5,1.6,25.9,4.8c7.5,3.2,13.8,7.6,19.1,13.3l29.7-30
		c-9.3-8.9-20.1-15.9-32.4-21C557.1,3,543,0.4,527.1,0.4c-14.9,0-28.7,2.6-41.5,7.8c-12.7,5.2-23.8,12.4-33.3,21.7
		c-9.4,9.3-16.8,20.2-22.1,32.7c-5.3,12.6-7.9,26.1-7.9,40.6c0,14.5,2.6,28.1,7.9,40.6c5.3,12.6,12.7,23.6,22.2,33
		c9.5,9.4,20.7,16.8,33.4,22c12.7,5.2,26.6,7.8,41.5,7.8c16.2,0,30.5-2.5,42.9-7.6c12.4-5.1,23.4-12.1,33-21l-30-30
		C567.8,153.6,561.3,158.1,553.7,161.3z"/>
	<path class="st0" d="M990.5,62.6c-5.3-12.6-12.6-23.5-22.1-32.7c-9.4-9.3-20.5-16.5-33.3-21.7c-12.7-5.2-26.6-7.8-41.5-7.8
		c-15.9,0-30,2.5-42.3,7.6c-12.4,5.1-23.2,12.1-32.4,21l29.7,30c5.3-5.7,11.7-10.1,19.1-13.3c7.5-3.2,16.1-4.8,25.9-4.8
		c8.7,0,16.7,1.5,23.9,4.4c7.3,2.9,13.5,7.1,18.7,12.6c5.2,5.5,9.3,12.1,12.2,19.8c2.9,7.7,4.4,16.2,4.4,25.5c0,9.4-1.5,18-4.4,25.8
		c-2.9,7.7-7,14.4-12.2,19.8c-5.2,5.5-11.4,9.7-18.7,12.7c-7.3,3-15.2,4.5-23.9,4.5c-10.2,0-19.1-1.6-26.6-4.8
		c-7.5-3.2-14.1-7.6-19.5-13.3l-30,30c9.6,8.9,20.6,15.9,33,21c12.4,5.1,26.7,7.6,42.9,7.6c14.9,0,28.7-2.6,41.5-7.8
		c12.7-5.2,23.9-12.5,33.4-22c9.5-9.4,16.9-20.4,22.2-33c5.3-12.6,7.9-26.1,7.9-40.6C998.5,88.7,995.8,75.1,990.5,62.6z"/>
	<rect x="655.6" y="165" class="st0" width="109.6" height="38.5"/>
	<rect x="655.6" y="82.1" class="st0" width="109.6" height="38.5"/>
	<rect x="655.6" y="3.5" class="st0" width="109.6" height="38.5"/>
</g>
</svg>
